<?xml version="1.0" encoding="UTF-8"?>
<svg width="1024px" height="1024px" version="1.1" viewBox="0 0 1024 1024" xml:space="preserve" xmlns="http://www.w3.org/2000/svg">
 <rect width="1024" height="1024" ry="0" stroke-linejoin="round"/>
 <path d="m755.75 512c0 134.65-109.1 243.75-243.75 243.75s-243.75-109.1-243.75-243.75 109.1-243.75 243.75-243.75 243.75 109.1 243.75 243.75zm-543.75 0c0 165.7 134.3 300 300 300 165.7 0 300-134.3 300-300 0-165.7-134.3-300-300-300-165.7 0-300 134.3-300 300zm271.88-159.38v159.38c0 9.375 4.6875 18.164 12.539 23.438l112.5 75c12.891 8.6719 30.352 5.1562 39.023-7.8516 8.6719-13.008 5.1562-30.352-7.8516-39.023l-99.961-66.562v-144.38c0-15.586-12.539-28.125-28.125-28.125s-28.125 12.539-28.125 28.125z" fill="#fff"/>
</svg>
